<svg xmlns="http://www.w3.org/2000/svg" viewBox="18668 -4451 24.068 16.069">
  <defs>
    <style>
      .cls-1 {
        fill: #9692b7;
      }
    </style>
  </defs>
  <g id="mail" transform="translate(18668 -4454.931)">
    <path id="Path_26" data-name="Path 26" class="cls-1" d="M23,20H1a.945.945,0,0,1-1-1V5A.945.945,0,0,1,1,4H23a.945.945,0,0,1,1,1V19A.945.945,0,0,1,23,20ZM2,18H22V6H2Z"/>
    <path id="Path_27" data-name="Path 27" class="cls-1" d="M12,13a.891.891,0,0,1-.8-.5.984.984,0,0,1,.3-1.4l11-7a1.012,1.012,0,0,1,1.1,1.7l-11,7A1.421,1.421,0,0,1,12,13Z"/>
    <path id="Path_28" data-name="Path 28" class="cls-1" d="M12,13a.764.764,0,0,1-.5-.2l-11-7A.889.889,0,0,1,.2,4.5a.889.889,0,0,1,1.3-.3l11,7a.984.984,0,0,1,.3,1.4A1.039,1.039,0,0,1,12,13Z"/>
  </g>
</svg>
